<?xml version="1.0" standalone="no"?>
<!DOCTYPE svg PUBLIC "-//W3C//DTD SVG 20010904//EN"
 "http://www.w3.org/TR/2001/REC-SVG-20010904/DTD/svg10.dtd">
<svg version="1.0" xmlns="http://www.w3.org/2000/svg"
 width="640.000000pt" height="640.000000pt" viewBox="0 0 640.000000 640.000000"
 preserveAspectRatio="xMidYMid meet">

<g transform="translate(0.000000,640.000000) scale(0.100000,-0.100000)"
fill="#000000" stroke="none">
<path d="M3460 5836 c-167 -39 -295 -104 -435 -221 l-50 -42 -115 -6 c-225
-10 -405 -95 -606 -287 -44 -41 -97 -96 -119 -122 l-40 -46 -90 13 c-49 7
-125 16 -167 20 l-77 7 -3 -113 -3 -112 -84 -28 c-46 -16 -154 -49 -240 -75
-213 -63 -201 -57 -201 -101 0 -178 -251 -2055 -375 -2803 -54 -328 -56 -394
-17 -471 43 -86 75 -102 307 -154 176 -40 1172 -261 1620 -359 242 -53 758
-170 952 -216 196 -46 219 -47 294 -21 76 26 856 351 1146 477 261 114 306
143 343 220 21 42 22 56 17 152 -3 59 -21 211 -41 337 -19 127 -43 284 -51
350 -9 66 -29 201 -45 300 -16 99 -36 232 -44 295 -8 63 -33 243 -56 400 -22
157 -55 407 -74 555 -19 149 -48 376 -65 505 -17 129 -33 283 -37 342 l-7 107
-36 5 c-20 3 -153 19 -296 36 -143 17 -282 34 -310 38 l-50 7 -6 140 c-4 77
-14 170 -22 206 -75 314 -280 553 -552 645 -96 32 -273 42 -365 20z m235 -302
c95 -24 165 -64 235 -134 107 -107 156 -230 167 -422 l6 -108 -26 0 c-23 0
-232 26 -380 48 -48 7 -49 8 -72 65 -55 135 -166 285 -281 379 -41 34 -74 65
-74 69 0 5 42 29 93 53 133 65 224 79 332 50z m-839 -346 c-3 -24 -8 -71 -12
-105 -6 -55 -9 -63 -27 -63 -35 0 -271 30 -303 39 l-29 7 42 31 c87 62 239
124 327 132 4 1 6 -18 2 -41z m383 -174 l21 -35 -58 3 -57 3 -2 75 -3 75 39
-43 c22 -24 49 -59 60 -78z m-1201 -387 c36 -34 73 -60 91 -63 17 -4 31 -8 31
-9 0 -2 -9 -43 -21 -91 -54 -226 -72 -451 -50 -604 49 -334 253 -561 533 -595
45 -6 59 -4 63 6 2 8 18 266 35 574 16 308 33 595 36 638 l6 79 32 -6 c81 -14
298 -46 359 -51 38 -4 89 -10 115 -14 46 -6 47 -7 47 -41 0 -19 -3 -66 -7
-105 -5 -53 -4 -65 4 -48 10 22 12 21 38 -20 15 -24 57 -67 94 -96 36 -29 71
-62 77 -73 8 -14 17 -18 35 -14 27 7 28 14 -12 -167 -73 -335 -217 -585 -439
-764 -217 -174 -449 -224 -678 -145 -99 34 -224 105 -293 165 -147 130 -270
356 -319 589 -19 87 -22 361 -6 511 17 150 78 421 108 470 3 4 17 -9 32 -30
16 -21 55 -64 89 -96z m1897 -247 c99 -17 248 -39 330 -50 211 -29 240 -34
239 -45 -5 -31 -18 -164 -54 -545 -72 -767 -101 -1043 -120 -1165 -10 -66 -21
-142 -24 -170 -48 -419 -130 -1000 -186 -1305 -16 -90 -30 -167 -30 -170 0 -8
-43 -5 -57 3 -6 4 -16 0 -23 -8 -16 -19 -46 -11 -80 20 -34 32 -72 45 -112 39
-18 -3 -46 0 -63 7 -16 7 -35 11 -42 10 -7 -1 -15 9 -19 23 -8 32 -30 40 -64
22 -24 -12 -30 -12 -42 1 -8 8 -26 15 -39 16 -13 1 -35 9 -49 17 -14 8 -52 15
-85 15 -61 1 -192 35 -232 61 -20 12 -24 12 -38 -9 -16 -22 -16 -22 -31 -2 -9
11 -19 27 -24 35 -7 12 -11 13 -21 3 -17 -17 -50 -16 -74 1 -11 7 -44 14 -74
15 -29 1 -59 4 -65 8 -6 4 -20 7 -31 8 -55 3 -66 6 -61 14 3 5 -16 8 -42 6
-26 -1 -67 4 -91 12 -35 10 -47 10 -59 0 -13 -11 -14 0 -9 88 4 55 12 183 17
285 6 102 17 284 26 405 20 291 33 566 34 694 l0 103 48 -8 c26 -5 83 -9 127
-8 160 2 337 96 502 267 144 149 251 329 322 543 61 182 65 215 67 514 1 151
2 278 3 281 0 3 11 5 24 2 12 -2 103 -17 202 -33z"/>
</g>
</svg>
